solid 
   facet normal 0.000000e+000 0.000000e+000 1.000000e+000
      outer loop
         vertex -2.400000e+001 -2.350000e+001 0.000000e+000
         vertex 2.400000e+001 -2.350000e+001 0.000000e+000
         vertex 2.100000e+001 -2.150000e+001 0.000000e+000
      endloop
   endfacet
   facet normal -0.000000e+000 0.000000e+000 1.000000e+000
      outer loop
         vertex 2.400000e+001 2.350000e+001 0.000000e+000
         vertex -2.400000e+001 2.350000e+001 0.000000e+000
         vertex 2.100000e+001 2.150000e+001 0.000000e+000
      endloop
   endfacet
   facet normal 0.000000e+000 0.000000e+000 1.000000e+000
      outer loop
         vertex -2.200000e+001 2.150000e+001 0.000000e+000
         vertex -2.100000e+001 2.150000e+001 0.000000e+000
         vertex -2.400000e+001 2.350000e+001 0.000000e+000
      endloop
   endfacet
   facet normal -0.000000e+000 0.000000e+000 1.000000e+000
      outer loop
         vertex -2.100000e+001 -2.150000e+001 0.000000e+000
         vertex -2.200000e+001 -2.150000e+001 0.000000e+000
         vertex -2.400000e+001 -2.350000e+001 0.000000e+000
      endloop
   endfacet
   facet normal 0.000000e+000 -0.000000e+000 1.000000e+000
      outer loop
         vertex 2.100000e+001 2.150000e+001 0.000000e+000
         vertex 2.200000e+001 2.150000e+001 0.000000e+000
         vertex 2.400000e+001 2.350000e+001 0.000000e+000
      endloop
   endfacet
   facet normal -0.000000e+000 0.000000e+000 1.000000e+000
      outer loop
         vertex 2.200000e+001 -2.150000e+001 0.000000e+000
         vertex 2.100000e+001 -2.150000e+001 0.000000e+000
         vertex 2.400000e+001 -2.350000e+001 0.000000e+000
      endloop
   endfacet
   facet normal 0.000000e+000 0.000000e+000 1.000000e+000
      outer loop
         vertex -2.400000e+001 -2.350000e+001 0.000000e+000
         vertex 2.100000e+001 -2.150000e+001 0.000000e+000
         vertex -2.100000e+001 -2.150000e+001 0.000000e+000
      endloop
   endfacet
   facet normal 0.000000e+000 0.000000e+000 1.000000e+000
      outer loop
         vertex -2.200000e+001 2.150000e+001 0.000000e+000
         vertex -2.400000e+001 2.350000e+001 0.000000e+000
         vertex -2.400000e+001 -2.350000e+001 0.000000e+000
      endloop
   endfacet
   facet normal -0.000000e+000 0.000000e+000 1.000000e+000
      outer loop
         vertex 2.400000e+001 2.350000e+001 0.000000e+000
         vertex 2.200000e+001 2.150000e+001 0.000000e+000
         vertex 2.400000e+001 -2.350000e+001 0.000000e+000
      endloop
   endfacet
   facet normal 0.000000e+000 0.000000e+000 1.000000e+000
      outer loop
         vertex -2.200000e+001 2.150000e+001 0.000000e+000
         vertex -2.400000e+001 -2.350000e+001 0.000000e+000
         vertex -2.200000e+001 -2.150000e+001 0.000000e+000
      endloop
   endfacet
   facet normal 0.000000e+000 0.000000e+000 1.000000e+000
      outer loop
         vertex -2.100000e+001 2.150000e+001 0.000000e+000
         vertex -2.100000e+001 -2.150000e+001 0.000000e+000
         vertex 2.100000e+001 2.150000e+001 0.000000e+000
      endloop
   endfacet
   facet normal 0.000000e+000 0.000000e+000 1.000000e+000
      outer loop
         vertex 2.100000e+001 -2.150000e+001 0.000000e+000
         vertex 2.100000e+001 2.150000e+001 0.000000e+000
         vertex -2.100000e+001 -2.150000e+001 0.000000e+000
      endloop
   endfacet
   facet normal 0.000000e+000 -0.000000e+000 1.000000e+000
      outer loop
         vertex -2.400000e+001 2.350000e+001 0.000000e+000
         vertex -2.100000e+001 2.150000e+001 0.000000e+000
         vertex 2.100000e+001 2.150000e+001 0.000000e+000
      endloop
   endfacet
   facet normal -0.000000e+000 0.000000e+000 1.000000e+000
      outer loop
         vertex 2.200000e+001 2.150000e+001 0.000000e+000
         vertex 2.200000e+001 -2.150000e+001 0.000000e+000
         vertex 2.400000e+001 -2.350000e+001 0.000000e+000
      endloop
   endfacet
   facet normal 0.000000e+000 -1.000000e+000 0.000000e+000
      outer loop
         vertex 2.100000e+001 -2.150000e+001 5.000000e+000
         vertex 2.100000e+001 -2.150000e+001 0.000000e+000
         vertex 2.200000e+001 -2.150000e+001 0.000000e+000
      endloop
   endfacet
   facet normal 0.000000e+000 -1.000000e+000 0.000000e+000
      outer loop
         vertex 2.200000e+001 -2.150000e+001 5.000000e+000
         vertex 2.100000e+001 -2.150000e+001 5.000000e+000
         vertex 2.200000e+001 -2.150000e+001 0.000000e+000
      endloop
   endfacet
   facet normal -1.000000e+000 0.000000e+000 0.000000e+000
      outer loop
         vertex 2.100000e+001 2.150000e+001 5.000000e+000
         vertex 2.100000e+001 2.150000e+001 0.000000e+000
         vertex 2.100000e+001 -2.150000e+001 0.000000e+000
      endloop
   endfacet
   facet normal -1.000000e+000 -0.000000e+000 0.000000e+000
      outer loop
         vertex 2.100000e+001 -2.150000e+001 5.000000e+000
         vertex 2.100000e+001 2.150000e+001 5.000000e+000
         vertex 2.100000e+001 -2.150000e+001 0.000000e+000
      endloop
   endfacet
   facet normal 0.000000e+000 1.000000e+000 -0.000000e+000
      outer loop
         vertex 2.200000e+001 2.150000e+001 5.000000e+000
         vertex 2.200000e+001 2.150000e+001 0.000000e+000
         vertex 2.100000e+001 2.150000e+001 0.000000e+000
      endloop
   endfacet
   facet normal 0.000000e+000 1.000000e+000 0.000000e+000
      outer loop
         vertex 2.100000e+001 2.150000e+001 5.000000e+000
         vertex 2.200000e+001 2.150000e+001 5.000000e+000
         vertex 2.100000e+001 2.150000e+001 0.000000e+000
      endloop
   endfacet
   facet normal 1.000000e+000 0.000000e+000 0.000000e+000
      outer loop
         vertex 2.200000e+001 -2.150000e+001 5.000000e+000
         vertex 2.200000e+001 -2.150000e+001 0.000000e+000
         vertex 2.200000e+001 2.150000e+001 0.000000e+000
      endloop
   endfacet
   facet normal 1.000000e+000 -0.000000e+000 0.000000e+000
      outer loop
         vertex 2.200000e+001 2.150000e+001 5.000000e+000
         vertex 2.200000e+001 -2.150000e+001 5.000000e+000
         vertex 2.200000e+001 2.150000e+001 0.000000e+000
      endloop
   endfacet
   facet normal 0.000000e+000 -1.000000e+000 0.000000e+000
      outer loop
         vertex -2.200000e+001 -2.150000e+001 5.000000e+000
         vertex -2.200000e+001 -2.150000e+001 0.000000e+000
         vertex -2.100000e+001 -2.150000e+001 0.000000e+000
      endloop
   endfacet
   facet normal 0.000000e+000 -1.000000e+000 0.000000e+000
      outer loop
         vertex -2.100000e+001 -2.150000e+001 5.000000e+000
         vertex -2.200000e+001 -2.150000e+001 5.000000e+000
         vertex -2.100000e+001 -2.150000e+001 0.000000e+000
      endloop
   endfacet
   facet normal -1.000000e+000 0.000000e+000 0.000000e+000
      outer loop
         vertex -2.200000e+001 2.150000e+001 5.000000e+000
         vertex -2.200000e+001 2.150000e+001 0.000000e+000
         vertex -2.200000e+001 -2.150000e+001 0.000000e+000
      endloop
   endfacet
   facet normal -1.000000e+000 -0.000000e+000 0.000000e+000
      outer loop
         vertex -2.200000e+001 -2.150000e+001 5.000000e+000
         vertex -2.200000e+001 2.150000e+001 5.000000e+000
         vertex -2.200000e+001 -2.150000e+001 0.000000e+000
      endloop
   endfacet
   facet normal 0.000000e+000 1.000000e+000 -0.000000e+000
      outer loop
         vertex -2.100000e+001 2.150000e+001 5.000000e+000
         vertex -2.100000e+001 2.150000e+001 0.000000e+000
         vertex -2.200000e+001 2.150000e+001 0.000000e+000
      endloop
   endfacet
   facet normal 0.000000e+000 1.000000e+000 0.000000e+000
      outer loop
         vertex -2.200000e+001 2.150000e+001 5.000000e+000
         vertex -2.100000e+001 2.150000e+001 5.000000e+000
         vertex -2.200000e+001 2.150000e+001 0.000000e+000
      endloop
   endfacet
   facet normal 1.000000e+000 0.000000e+000 0.000000e+000
      outer loop
         vertex -2.100000e+001 -2.150000e+001 5.000000e+000
         vertex -2.100000e+001 -2.150000e+001 0.000000e+000
         vertex -2.100000e+001 2.150000e+001 0.000000e+000
      endloop
   endfacet
   facet normal 1.000000e+000 -0.000000e+000 0.000000e+000
      outer loop
         vertex -2.100000e+001 2.150000e+001 5.000000e+000
         vertex -2.100000e+001 -2.150000e+001 5.000000e+000
         vertex -2.100000e+001 2.150000e+001 0.000000e+000
      endloop
   endfacet
   facet normal 1.000000e+000 0.000000e+000 0.000000e+000
      outer loop
         vertex 2.400000e+001 -2.350000e+001 0.000000e+000
         vertex 2.400000e+001 -2.350000e+001 -2.000000e+000
         vertex 2.400000e+001 2.350000e+001 -2.000000e+000
      endloop
   endfacet
   facet normal 1.000000e+000 -0.000000e+000 0.000000e+000
      outer loop
         vertex 2.400000e+001 2.350000e+001 0.000000e+000
         vertex 2.400000e+001 -2.350000e+001 0.000000e+000
         vertex 2.400000e+001 2.350000e+001 -2.000000e+000
      endloop
   endfacet
   facet normal 0.000000e+000 1.000000e+000 -0.000000e+000
      outer loop
         vertex 2.400000e+001 2.350000e+001 0.000000e+000
         vertex 2.400000e+001 2.350000e+001 -2.000000e+000
         vertex -2.400000e+001 2.350000e+001 -2.000000e+000
      endloop
   endfacet
   facet normal 0.000000e+000 1.000000e+000 0.000000e+000
      outer loop
         vertex -2.400000e+001 2.350000e+001 0.000000e+000
         vertex 2.400000e+001 2.350000e+001 0.000000e+000
         vertex -2.400000e+001 2.350000e+001 -2.000000e+000
      endloop
   endfacet
   facet normal -1.000000e+000 0.000000e+000 0.000000e+000
      outer loop
         vertex -2.400000e+001 2.350000e+001 0.000000e+000
         vertex -2.400000e+001 2.350000e+001 -2.000000e+000
         vertex -2.400000e+001 -2.350000e+001 -2.000000e+000
      endloop
   endfacet
   facet normal -1.000000e+000 -0.000000e+000 0.000000e+000
      outer loop
         vertex -2.400000e+001 -2.350000e+001 0.000000e+000
         vertex -2.400000e+001 2.350000e+001 0.000000e+000
         vertex -2.400000e+001 -2.350000e+001 -2.000000e+000
      endloop
   endfacet
   facet normal 0.000000e+000 -1.000000e+000 0.000000e+000
      outer loop
         vertex -2.400000e+001 -2.350000e+001 0.000000e+000
         vertex -2.400000e+001 -2.350000e+001 -2.000000e+000
         vertex 2.400000e+001 -2.350000e+001 -2.000000e+000
      endloop
   endfacet
   facet normal 0.000000e+000 -1.000000e+000 0.000000e+000
      outer loop
         vertex 2.400000e+001 -2.350000e+001 0.000000e+000
         vertex -2.400000e+001 -2.350000e+001 0.000000e+000
         vertex 2.400000e+001 -2.350000e+001 -2.000000e+000
      endloop
   endfacet
   facet normal 0.000000e+000 -0.000000e+000 1.000000e+000
      outer loop
         vertex 2.100000e+001 -2.150000e+001 5.000000e+000
         vertex 2.200000e+001 -2.150000e+001 5.000000e+000
         vertex 2.200000e+001 2.150000e+001 5.000000e+000
      endloop
   endfacet
   facet normal 0.000000e+000 0.000000e+000 1.000000e+000
      outer loop
         vertex 2.100000e+001 2.150000e+001 5.000000e+000
         vertex 2.100000e+001 -2.150000e+001 5.000000e+000
         vertex 2.200000e+001 2.150000e+001 5.000000e+000
      endloop
   endfacet
   facet normal 0.000000e+000 -0.000000e+000 1.000000e+000
      outer loop
         vertex -2.200000e+001 -2.150000e+001 5.000000e+000
         vertex -2.100000e+001 -2.150000e+001 5.000000e+000
         vertex -2.100000e+001 2.150000e+001 5.000000e+000
      endloop
   endfacet
   facet normal 0.000000e+000 0.000000e+000 1.000000e+000
      outer loop
         vertex -2.200000e+001 2.150000e+001 5.000000e+000
         vertex -2.200000e+001 -2.150000e+001 5.000000e+000
         vertex -2.100000e+001 2.150000e+001 5.000000e+000
      endloop
   endfacet
   facet normal -0.000000e+000 -0.000000e+000 -1.000000e+000
      outer loop
         vertex -2.400000e+001 2.350000e+001 -2.000000e+000
         vertex 2.400000e+001 2.350000e+001 -2.000000e+000
         vertex 2.400000e+001 -2.350000e+001 -2.000000e+000
      endloop
   endfacet
   facet normal 0.000000e+000 0.000000e+000 -1.000000e+000
      outer loop
         vertex -2.400000e+001 2.350000e+001 -2.000000e+000
         vertex 2.400000e+001 -2.350000e+001 -2.000000e+000
         vertex -2.400000e+001 -2.350000e+001 -2.000000e+000
      endloop
   endfacet
endsolid
